<mxfile host="app.diagrams.net" agent="Mozilla/5.0 (Windows NT 10.0; Win64; x64) AppleWebKit/537.36 (KHTML, like Gecko) Chrome/131.0.0.0 Safari/537.36 Edg/131.0.0.0" version="25.0.1">
  <diagram name="Page-1" id="YOY1E8mCG1GZ4bqBqJso">
    <mxGraphModel dx="2038" dy="631" grid="1" gridSize="10" guides="1" tooltips="1" connect="1" arrows="1" fold="1" page="1" pageScale="1" pageWidth="850" pageHeight="1100" math="0" shadow="0">
      <root>
        <mxCell id="0" />
        <mxCell id="1" parent="0" />
        <mxCell id="2uTWEgXhVJljgLV_RzY3-67" value="" style="rounded=1;whiteSpace=wrap;html=1;fillColor=none;" vertex="1" parent="1">
          <mxGeometry x="370" y="70" width="310" height="240" as="geometry" />
        </mxCell>
        <mxCell id="2uTWEgXhVJljgLV_RzY3-68" value="" style="rounded=1;whiteSpace=wrap;html=1;" vertex="1" parent="1">
          <mxGeometry x="70" y="330" width="680" height="50" as="geometry" />
        </mxCell>
        <mxCell id="2uTWEgXhVJljgLV_RzY3-69" value="" style="rounded=1;whiteSpace=wrap;html=1;fillColor=none;strokeColor=#660033;" vertex="1" parent="1">
          <mxGeometry x="-120" y="65" width="380" height="250" as="geometry" />
        </mxCell>
        <mxCell id="2uTWEgXhVJljgLV_RzY3-70" style="edgeStyle=orthogonalEdgeStyle;rounded=0;orthogonalLoop=1;jettySize=auto;html=1;exitX=0;exitY=0.25;exitDx=0;exitDy=0;entryX=1;entryY=0.5;entryDx=0;entryDy=0;" edge="1" parent="1" source="2uTWEgXhVJljgLV_RzY3-71" target="2uTWEgXhVJljgLV_RzY3-109">
          <mxGeometry relative="1" as="geometry" />
        </mxCell>
        <mxCell id="2uTWEgXhVJljgLV_RzY3-71" value="" style="rounded=1;whiteSpace=wrap;html=1;" vertex="1" parent="1">
          <mxGeometry x="125" y="290" width="570" height="50" as="geometry" />
        </mxCell>
        <mxCell id="2uTWEgXhVJljgLV_RzY3-72" value="SERIAL-96755" style="rounded=1;whiteSpace=wrap;html=1;" vertex="1" parent="1">
          <mxGeometry x="390" y="440" width="120" height="30" as="geometry" />
        </mxCell>
        <mxCell id="2uTWEgXhVJljgLV_RzY3-73" style="edgeStyle=orthogonalEdgeStyle;rounded=0;orthogonalLoop=1;jettySize=auto;html=1;entryX=0;entryY=0.5;entryDx=0;entryDy=0;startArrow=blockThin;startFill=1;" edge="1" parent="1" source="2uTWEgXhVJljgLV_RzY3-75" target="2uTWEgXhVJljgLV_RzY3-76">
          <mxGeometry relative="1" as="geometry" />
        </mxCell>
        <mxCell id="2uTWEgXhVJljgLV_RzY3-74" value="I2C" style="edgeLabel;html=1;align=center;verticalAlign=middle;resizable=0;points=[];" vertex="1" connectable="0" parent="2uTWEgXhVJljgLV_RzY3-73">
          <mxGeometry x="-0.0143" y="1" relative="1" as="geometry">
            <mxPoint as="offset" />
          </mxGeometry>
        </mxCell>
        <mxCell id="2uTWEgXhVJljgLV_RzY3-75" value="DESERIAL-96752" style="rounded=1;whiteSpace=wrap;html=1;" vertex="1" parent="1">
          <mxGeometry x="390" y="520" width="120" height="30" as="geometry" />
        </mxCell>
        <mxCell id="2uTWEgXhVJljgLV_RzY3-76" value="MCU" style="rounded=1;whiteSpace=wrap;html=1;" vertex="1" parent="1">
          <mxGeometry x="570" y="520" width="70" height="30" as="geometry" />
        </mxCell>
        <mxCell id="2uTWEgXhVJljgLV_RzY3-77" style="edgeStyle=orthogonalEdgeStyle;rounded=0;orthogonalLoop=1;jettySize=auto;html=1;entryX=0.5;entryY=1;entryDx=0;entryDy=0;startArrow=classic;startFill=1;endArrow=none;endFill=0;" edge="1" parent="1" source="2uTWEgXhVJljgLV_RzY3-79" target="2uTWEgXhVJljgLV_RzY3-75">
          <mxGeometry relative="1" as="geometry" />
        </mxCell>
        <mxCell id="2uTWEgXhVJljgLV_RzY3-78" value="LVDS" style="edgeLabel;html=1;align=center;verticalAlign=middle;resizable=0;points=[];" vertex="1" connectable="0" parent="2uTWEgXhVJljgLV_RzY3-77">
          <mxGeometry x="0.0476" y="1" relative="1" as="geometry">
            <mxPoint as="offset" />
          </mxGeometry>
        </mxCell>
        <mxCell id="2uTWEgXhVJljgLV_RzY3-79" value="IVI-DISPLAY" style="rounded=1;whiteSpace=wrap;html=1;" vertex="1" parent="1">
          <mxGeometry x="395" y="600" width="110" height="30" as="geometry" />
        </mxCell>
        <mxCell id="2uTWEgXhVJljgLV_RzY3-80" value="" style="endArrow=classic;startArrow=classic;html=1;rounded=0;exitX=0.5;exitY=0;exitDx=0;exitDy=0;entryX=0.5;entryY=1;entryDx=0;entryDy=0;" edge="1" parent="1" source="2uTWEgXhVJljgLV_RzY3-75" target="2uTWEgXhVJljgLV_RzY3-72">
          <mxGeometry width="50" height="50" relative="1" as="geometry">
            <mxPoint x="410" y="530" as="sourcePoint" />
            <mxPoint x="460" y="480" as="targetPoint" />
          </mxGeometry>
        </mxCell>
        <mxCell id="2uTWEgXhVJljgLV_RzY3-81" value="GSML LINK" style="edgeLabel;html=1;align=center;verticalAlign=middle;resizable=0;points=[];" vertex="1" connectable="0" parent="2uTWEgXhVJljgLV_RzY3-80">
          <mxGeometry x="0.04" y="1" relative="1" as="geometry">
            <mxPoint as="offset" />
          </mxGeometry>
        </mxCell>
        <mxCell id="2uTWEgXhVJljgLV_RzY3-82" value="" style="endArrow=classic;startArrow=classic;html=1;rounded=0;exitX=0.5;exitY=0;exitDx=0;exitDy=0;" edge="1" parent="1">
          <mxGeometry width="50" height="50" relative="1" as="geometry">
            <mxPoint x="410" y="440" as="sourcePoint" />
            <mxPoint x="410" y="381" as="targetPoint" />
          </mxGeometry>
        </mxCell>
        <mxCell id="2uTWEgXhVJljgLV_RzY3-83" value="DSI&amp;nbsp; 0" style="edgeLabel;html=1;align=center;verticalAlign=middle;resizable=0;points=[];" vertex="1" connectable="0" parent="2uTWEgXhVJljgLV_RzY3-82">
          <mxGeometry x="-0.1684" y="-8" relative="1" as="geometry">
            <mxPoint x="-7" y="-1" as="offset" />
          </mxGeometry>
        </mxCell>
        <mxCell id="2uTWEgXhVJljgLV_RzY3-84" value="" style="endArrow=classic;startArrow=classic;html=1;rounded=0;exitX=0.75;exitY=0;exitDx=0;exitDy=0;" edge="1" parent="1">
          <mxGeometry width="50" height="50" relative="1" as="geometry">
            <mxPoint x="490" y="440" as="sourcePoint" />
            <mxPoint x="490" y="380" as="targetPoint" />
          </mxGeometry>
        </mxCell>
        <mxCell id="2uTWEgXhVJljgLV_RzY3-85" value="I2C" style="edgeLabel;html=1;align=center;verticalAlign=middle;resizable=0;points=[];" vertex="1" connectable="0" parent="2uTWEgXhVJljgLV_RzY3-84">
          <mxGeometry x="-0.0239" relative="1" as="geometry">
            <mxPoint as="offset" />
          </mxGeometry>
        </mxCell>
        <mxCell id="2uTWEgXhVJljgLV_RzY3-100" value="SA8155P" style="text;html=1;align=center;verticalAlign=middle;resizable=0;points=[];autosize=1;strokeColor=none;fillColor=none;" vertex="1" parent="1">
          <mxGeometry x="690" y="330" width="70" height="30" as="geometry" />
        </mxCell>
        <mxCell id="2uTWEgXhVJljgLV_RzY3-102" value="DSI" style="rounded=1;whiteSpace=wrap;html=1;" vertex="1" parent="1">
          <mxGeometry x="395" y="360" width="30" height="20" as="geometry" />
        </mxCell>
        <mxCell id="2uTWEgXhVJljgLV_RzY3-104" value="I2C Master" style="rounded=1;whiteSpace=wrap;html=1;" vertex="1" parent="1">
          <mxGeometry x="450" y="360" width="70" height="20" as="geometry" />
        </mxCell>
        <mxCell id="2uTWEgXhVJljgLV_RzY3-105" value="QNX" style="text;html=1;align=center;verticalAlign=middle;whiteSpace=wrap;rounded=0;fontColor=#020303;" vertex="1" parent="1">
          <mxGeometry x="185" y="60" width="40" height="20" as="geometry" />
        </mxCell>
        <mxCell id="2uTWEgXhVJljgLV_RzY3-106" value="QNX hypervisor" style="text;html=1;align=center;verticalAlign=middle;whiteSpace=wrap;rounded=0;" vertex="1" parent="1">
          <mxGeometry x="260" y="270" width="100" height="30" as="geometry" />
        </mxCell>
        <mxCell id="2uTWEgXhVJljgLV_RzY3-107" value="I2C_drv" style="rounded=1;whiteSpace=wrap;html=1;" vertex="1" parent="1">
          <mxGeometry x="125" y="150" width="80" height="20" as="geometry" />
        </mxCell>
        <mxCell id="2uTWEgXhVJljgLV_RzY3-109" value="WFD BE" style="rounded=1;whiteSpace=wrap;html=1;" vertex="1" parent="1">
          <mxGeometry x="40" y="287.5" width="60" height="12.5" as="geometry" />
        </mxCell>
        <mxCell id="2uTWEgXhVJljgLV_RzY3-132" style="edgeStyle=orthogonalEdgeStyle;rounded=0;orthogonalLoop=1;jettySize=auto;html=1;startArrow=openThin;startFill=0;" edge="1" parent="1" source="2uTWEgXhVJljgLV_RzY3-111" target="2uTWEgXhVJljgLV_RzY3-107">
          <mxGeometry relative="1" as="geometry" />
        </mxCell>
        <mxCell id="2uTWEgXhVJljgLV_RzY3-111" value="mtouch" style="rounded=1;whiteSpace=wrap;html=1;" vertex="1" parent="1">
          <mxGeometry x="-40" y="145" width="90" height="30" as="geometry" />
        </mxCell>
        <mxCell id="2uTWEgXhVJljgLV_RzY3-117" style="edgeStyle=orthogonalEdgeStyle;rounded=0;orthogonalLoop=1;jettySize=auto;html=1;entryX=0.132;entryY=-0.017;entryDx=0;entryDy=0;entryPerimeter=0;" edge="1" parent="1" source="2uTWEgXhVJljgLV_RzY3-107" target="2uTWEgXhVJljgLV_RzY3-71">
          <mxGeometry relative="1" as="geometry">
            <Array as="points">
              <mxPoint x="200" y="230" />
            </Array>
          </mxGeometry>
        </mxCell>
        <mxCell id="2uTWEgXhVJljgLV_RzY3-140" style="edgeStyle=orthogonalEdgeStyle;rounded=0;orthogonalLoop=1;jettySize=auto;html=1;" edge="1" parent="1" source="2uTWEgXhVJljgLV_RzY3-133" target="2uTWEgXhVJljgLV_RzY3-139">
          <mxGeometry relative="1" as="geometry" />
        </mxCell>
        <mxCell id="2uTWEgXhVJljgLV_RzY3-133" value="virtio-input" style="rounded=1;whiteSpace=wrap;html=1;" vertex="1" parent="1">
          <mxGeometry x="405" y="230" width="90" height="30" as="geometry" />
        </mxCell>
        <mxCell id="2uTWEgXhVJljgLV_RzY3-135" value="&lt;pre&gt;&lt;h5 style=&quot;background-color: rgba(0, 0, 0, 0); font-family: Consolas, monospace-fallback, &amp;quot;monospace&amp;quot;;&quot;&gt;vdev-virtio-&lt;span style=&quot;font-weight: bold;&quot;&gt;input&lt;/span&gt;&lt;/h5&gt;&lt;/pre&gt;" style="rounded=1;whiteSpace=wrap;html=1;fontSize=11;" vertex="1" parent="1">
          <mxGeometry x="290" y="300" width="90" height="30" as="geometry" />
        </mxCell>
        <mxCell id="2uTWEgXhVJljgLV_RzY3-137" value="" style="endArrow=none;html=1;strokeWidth=2;rounded=0;exitX=0;exitY=0.5;exitDx=0;exitDy=0;endFill=0;startArrow=openThin;startFill=0;" edge="1" parent="1" source="2uTWEgXhVJljgLV_RzY3-135" target="2uTWEgXhVJljgLV_RzY3-111">
          <mxGeometry width="50" height="50" relative="1" as="geometry">
            <mxPoint x="-40" y="220" as="sourcePoint" />
            <mxPoint x="10" y="170" as="targetPoint" />
          </mxGeometry>
        </mxCell>
        <mxCell id="2uTWEgXhVJljgLV_RzY3-138" value="" style="endArrow=openThin;html=1;strokeWidth=2;rounded=0;exitX=1;exitY=0.5;exitDx=0;exitDy=0;endFill=0;" edge="1" parent="1" source="2uTWEgXhVJljgLV_RzY3-135">
          <mxGeometry width="50" height="50" relative="1" as="geometry">
            <mxPoint x="390" y="310" as="sourcePoint" />
            <mxPoint x="440" y="260" as="targetPoint" />
          </mxGeometry>
        </mxCell>
        <mxCell id="2uTWEgXhVJljgLV_RzY3-139" value="/dev/input/event0" style="rounded=1;whiteSpace=wrap;html=1;" vertex="1" parent="1">
          <mxGeometry x="402.5" y="170" width="95" height="30" as="geometry" />
        </mxCell>
        <mxCell id="2uTWEgXhVJljgLV_RzY3-141" value="android" style="text;html=1;align=center;verticalAlign=middle;resizable=0;points=[];autosize=1;strokeColor=none;fillColor=none;" vertex="1" parent="1">
          <mxGeometry x="610" y="40" width="60" height="30" as="geometry" />
        </mxCell>
      </root>
    </mxGraphModel>
  </diagram>
</mxfile>
